<svg width="26" height="33" viewBox="0 0 26 33" fill="none" xmlns="http://www.w3.org/2000/svg">
<path d="M25.0445 8.74971C25.2555 8.96064 25.375 9.24541 25.375 9.54424V31.2251C25.375 31.8474 24.8723 32.3501 24.25 32.3501H1.75C1.12773 32.3501 0.625 31.8474 0.625 31.2251V1.9751C0.625 1.35283 1.12773 0.850098 1.75 0.850098H16.6809C16.9797 0.850098 17.268 0.969629 17.4789 1.18057L25.0445 8.74971ZM22.7805 10.061L16.1641 3.44463V10.061H22.7805ZM17.2616 21.0038C16.728 20.9862 16.1605 21.0273 15.5161 21.1078C14.6618 20.5808 14.0867 19.857 13.6782 18.7935L13.7158 18.6395L13.7594 18.4574C13.9105 17.82 13.9918 17.3549 14.016 16.8859C14.0343 16.5319 14.0146 16.2053 13.9517 15.9026C13.8357 15.249 13.3734 14.8669 12.7908 14.8433C12.2477 14.8212 11.7484 15.1246 11.6208 15.5946C11.413 16.3547 11.5347 17.3549 11.9752 19.0607C11.4141 20.3984 10.6727 21.9667 10.1752 22.8414C9.51109 23.1838 8.99395 23.4953 8.55941 23.8405C7.98637 24.2965 7.62848 24.7651 7.53004 25.2573C7.48223 25.4855 7.5543 25.7836 7.71848 26.0279C7.9048 26.305 8.18535 26.485 8.5218 26.511C9.37082 26.5767 10.4143 25.7013 11.5663 23.7245C11.682 23.6858 11.8043 23.6451 11.9537 23.5944L12.3721 23.4531C12.6368 23.3638 12.8288 23.2998 13.0186 23.2383C13.8413 22.9704 14.4636 22.8013 15.0296 22.705C16.0132 23.2316 17.1502 23.5769 17.9159 23.5769C18.548 23.5769 18.9752 23.2492 19.1295 22.7335C19.2648 22.2806 19.1576 21.7554 18.8665 21.465C18.5656 21.1694 18.0122 21.028 17.2616 21.0038ZM8.54324 25.5185V25.5059L8.54781 25.4939C8.59925 25.3609 8.66528 25.2341 8.74469 25.1156C8.89516 24.8843 9.10223 24.641 9.35887 24.3819C9.49668 24.2431 9.64012 24.1077 9.80852 23.9558C9.84613 23.9221 10.0866 23.708 10.1316 23.6658L10.5243 23.3002L10.2388 23.7547C9.8057 24.4452 9.41406 24.9423 9.07867 25.2665C8.95527 25.386 8.84664 25.4739 8.75875 25.5305C8.72973 25.5499 8.69902 25.5666 8.66699 25.5804C8.65258 25.5864 8.63992 25.5899 8.62727 25.591C8.6139 25.5927 8.60033 25.5908 8.58789 25.5857C8.57466 25.5801 8.56336 25.5708 8.55542 25.5589C8.54747 25.5469 8.54324 25.5329 8.54324 25.5185ZM12.9708 17.8446L12.8914 17.9853L12.8421 17.8313C12.7332 17.4857 12.653 16.965 12.6309 16.4953C12.6055 15.961 12.6481 15.6403 12.8168 15.6403C13.0538 15.6403 13.1624 16.02 13.1709 16.5913C13.1786 17.0933 13.0995 17.6158 12.9705 17.8446H12.9708ZM12.7666 19.8999L12.8204 19.7575L12.8938 19.8911C13.3048 20.6378 13.8381 21.2608 14.4245 21.6949L14.5511 21.7885L14.3968 21.8201C13.8227 21.9389 13.2879 22.1175 12.5567 22.4125C12.633 22.3815 11.7966 22.724 11.585 22.8052L11.4004 22.8758L11.4988 22.7043C11.933 21.9484 12.3341 21.0407 12.7662 19.8999H12.7666ZM18.3079 22.5809C18.0316 22.6899 17.4367 22.5925 16.3894 22.1453L16.1236 22.0321L16.4119 22.011C17.2311 21.9502 17.8111 21.9952 18.1493 22.1189C18.2935 22.1717 18.3895 22.2381 18.432 22.314C18.4544 22.35 18.4619 22.3932 18.453 22.4346C18.4441 22.476 18.4194 22.5123 18.3842 22.5359C18.3618 22.5556 18.3359 22.5708 18.3079 22.5809Z" fill="#01976B"/>
</svg>
