<svg width="156" height="199" viewBox="0 0 156 199" fill="none" xmlns="http://www.w3.org/2000/svg">
<g clip-path="url(#clip0_1298_21035)">
<path d="M105.815 24.3573L89.1796 5.12421C83.2779 -1.70807 72.7023 -1.70807 66.8006 5.12421L50.1648 24.3573C44.263 31.1895 33.6875 31.1895 27.7857 24.3573L11.1499 5.12421C5.2482 -1.70807 -5.32742 -1.70807 -11.2292 5.12421L-27.8649 24.3573C-33.7667 31.1895 -44.3423 31.1895 -50.244 24.3573L-66.8798 5.12421C-72.7815 -1.70807 -83.3571 -1.70807 -89.2589 5.12421L-105.895 24.3573C-111.796 31.1895 -122.372 31.1895 -128.274 24.3573L-130.135 22.2246C-138.968 11.8775 -156 18.1964 -156 31.8214C-156 35.3363 -154.733 38.7722 -152.435 41.4182L-128.194 69.4582C-122.293 76.2905 -111.717 76.2905 -105.815 69.4582L-89.1796 50.2251C-83.2779 43.3929 -72.7023 43.3929 -66.8006 50.2251L-50.1648 69.4582C-44.263 76.2905 -33.6874 76.2905 -27.7857 69.4582L-11.1499 50.2251C-5.2482 43.3929 5.32742 43.3929 11.2292 50.2251L27.8649 69.4582C33.7666 76.2905 44.3423 76.2905 50.244 69.4582L66.8798 50.2251C72.7815 43.3929 83.3571 43.3929 89.2589 50.2251L105.895 69.4582C111.796 76.2905 122.372 76.2905 128.274 69.4582L152.514 41.4182C154.812 38.7327 156.079 35.3363 156.079 31.8214C156.079 18.1569 139.047 11.8775 130.135 22.2246L128.274 24.3573C122.372 31.1895 111.796 31.1895 105.895 24.3573H105.815Z" fill="#DBFF77"/>
<path d="M105.815 108.566L89.1797 89.333C83.2779 82.5007 72.7023 82.5007 66.8006 89.333L50.1648 108.566C44.263 115.398 33.6875 115.398 27.7857 108.566L11.1499 89.333C5.2482 82.5007 -5.32741 82.5007 -11.2291 89.333L-27.8649 108.566C-33.7667 115.398 -44.3423 115.398 -50.244 108.566L-66.8798 89.333C-72.7815 82.5007 -83.3571 82.5007 -89.2589 89.333L-105.895 108.566C-111.796 115.398 -122.372 115.398 -128.274 108.566L-130.135 106.433C-139.087 96.0863 -156.079 102.405 -156.079 116.03C-156.079 119.545 -154.812 122.981 -152.514 125.627L-128.274 153.667C-122.372 160.499 -111.796 160.499 -105.895 153.667L-89.2589 134.434C-83.3571 127.602 -72.7815 127.602 -66.8798 134.434L-50.244 153.667C-44.3423 160.499 -33.7667 160.499 -27.8649 153.667L-11.2291 134.434C-5.32741 127.602 5.2482 127.602 11.1499 134.434L27.7857 153.667C33.6875 160.499 44.263 160.499 50.1648 153.667L66.8006 134.434C72.7023 127.602 83.2779 127.602 89.1797 134.434L105.815 153.667C111.717 160.499 122.293 160.499 128.194 153.667L152.435 125.627C154.733 122.941 156 119.545 156 116.03C156 102.366 138.968 96.0863 130.056 106.433L128.194 108.566C122.293 115.398 111.717 115.398 105.815 108.566Z" fill="#DBFF77"/>
<path d="M105.815 192.804L89.1797 173.571C83.2779 166.739 72.7023 166.739 66.8006 173.571L50.1648 192.804C44.263 199.637 33.6875 199.637 27.7857 192.804L11.1499 173.571C5.2482 166.739 -5.32741 166.739 -11.2291 173.571L-27.8649 192.804C-33.7667 199.637 -44.3423 199.637 -50.244 192.804L-66.8798 173.571C-72.7815 166.739 -83.3571 166.739 -89.2589 173.571L-105.895 192.804C-111.796 199.637 -122.372 199.637 -128.274 192.804L-130.135 190.672C-139.087 180.325 -156.079 186.644 -156.079 200.269C-156.079 203.784 -154.812 207.219 -152.514 209.865L-128.274 237.905C-122.372 244.738 -111.796 244.738 -105.895 237.905L-89.2589 218.672C-83.3571 211.84 -72.7815 211.84 -66.8798 218.672L-50.244 237.905C-44.3423 244.738 -33.7667 244.738 -27.8649 237.905L-11.2291 218.672C-5.32741 211.84 5.2482 211.84 11.1499 218.672L27.7857 237.905C33.6875 244.738 44.263 244.738 50.1648 237.905L66.8006 218.672C72.7023 211.84 83.2779 211.84 89.1797 218.672L105.815 237.905C111.717 244.738 122.293 244.738 128.194 237.905L152.435 209.865C154.733 207.18 156 203.784 156 200.269C156 186.604 138.968 180.325 130.056 190.672L128.194 192.804C122.293 199.637 111.717 199.637 105.815 192.804Z" fill="#DBFF77"/>
</g>
<defs>
<clipPath id="clip0_1298_21035">
<rect width="312" height="243" fill="white" transform="translate(-156)"/>
</clipPath>
</defs>
</svg>
