<svg width="236" height="53" viewBox="0 0 236 53" fill="none" xmlns="http://www.w3.org/2000/svg">
<path d="M202.749 24.4938L186.117 5.15308C180.217 -1.71745 169.644 -1.71745 163.744 5.15308L147.112 24.4938C141.212 31.3644 130.639 31.3644 124.739 24.4938L108.107 5.15308C102.207 -1.71745 91.6343 -1.71745 85.7341 5.15308L69.1025 24.4938C63.2023 31.3644 52.6294 31.3644 46.7291 24.4938L30.0976 5.15308C24.1974 -1.71745 13.6244 -1.71745 7.72421 5.15308L-8.90735 24.4938C-14.8076 31.3644 -25.3805 31.3644 -31.2807 24.4938L-33.1419 22.3493C-41.9725 11.9442 -59 18.2984 -59 31.9998C-59 35.5343 -57.7328 38.9895 -55.4361 41.6503L-31.2015 69.8473C-25.3013 76.7178 -14.7284 76.7178 -8.82815 69.8473L7.80341 50.5065C13.7036 43.636 24.2766 43.636 30.1768 50.5065L46.8083 69.8473C52.7086 76.7178 63.2815 76.7178 69.1817 69.8473L85.8133 50.5065C91.7135 43.636 102.286 43.636 108.187 50.5065L124.818 69.8473C130.718 76.7178 141.291 76.7178 147.192 69.8473L163.823 50.5065C169.723 43.636 180.296 43.636 186.197 50.5065L202.828 69.8473C208.728 76.7178 219.301 76.7178 225.202 69.8473L249.436 41.6503C251.733 38.9497 253 35.5343 253 31.9998C253 18.2587 235.972 11.9442 227.063 22.3493L225.202 24.4938C219.301 31.3644 208.728 31.3644 202.828 24.4938H202.749Z" fill="#DBFF77"/>
</svg>
